<svg width="240" height="240" viewBox="0 0 240 240" fill="none" xmlns="http://www.w3.org/2000/svg">
<path d="M59.8216 120.454C60.4342 175.265 103.034 219.228 60.9308 219.698C18.828 220.169 60.4342 175.265 59.8216 120.454C59.209 65.6424 16.6096 21.6797 58.7124 21.2091C100.815 20.7386 59.209 65.6424 59.8216 120.454Z" fill="#0F0F0F"/>
<path d="M119.663 40.5069C80.7534 40.0681 48.7362 81.8151 49.211 39.7123C49.6858 -2.39042 80.7534 40.0681 119.663 40.5069C158.572 40.9457 190.589 -0.801336 190.115 41.3014C189.64 83.4042 158.572 40.9457 119.663 40.5069Z" fill="#0F0F0F"/>
<path d="M129.909 201.145C88.5977 200.907 54.8649 242.818 55.108 200.713C55.3511 158.608 88.5977 200.907 129.909 201.145C171.221 201.384 204.954 159.472 204.711 201.577C204.467 243.682 171.221 201.384 129.909 201.145Z" fill="#0F0F0F"/>
<path d="M110.123 119.756C82.4439 119.764 60.0175 161.876 60.0054 119.77C59.9934 77.6649 82.4439 119.764 110.123 119.756C137.802 119.748 160.229 77.6362 160.241 119.742C160.253 161.847 137.802 119.748 110.123 119.756Z" fill="#0F0F0F"/>
</svg>
