<svg width="240" height="240" viewBox="0 0 240 240" fill="none" xmlns="http://www.w3.org/2000/svg">
<g clip-path="url(#clip0)">
<rect width="240" height="240" fill="white"/>
<path d="M59.1789 109.919C58.8915 159.62 100.64 200.112 58.6585 199.911C16.6771 199.71 58.8915 159.62 59.1789 109.919C59.4664 60.2184 17.718 19.727 59.6994 19.9278C101.681 20.1286 59.4664 60.2184 59.1789 109.919Z" fill="#0F0F0F"/>
<path d="M116.774 21.0325C75.2706 20.2835 48.1406 88.6482 48.9736 50.4778C49.8066 12.3074 75.2706 20.2835 116.774 21.0325C177.545 21.0325 194.331 12.8698 193.498 51.0401C192.665 89.2105 158.278 21.7816 116.774 21.0325Z" fill="#0F0F0F"/>
<path d="M180.821 109.919C180.534 159.62 222.282 200.112 180.301 199.911C138.319 199.71 180.534 159.62 180.821 109.919C181.108 60.2184 139.36 19.727 181.341 19.9278C223.323 20.1286 181.108 60.2184 180.821 109.919Z" fill="#0F0F0F"/>
<path d="M124.362 196.916C165.863 197.778 193.217 129.487 192.259 167.655C191.301 205.823 165.863 197.778 124.362 196.916C63.5913 196.752 46.7785 204.869 47.7365 166.701C48.6945 128.533 82.8607 196.055 124.362 196.916Z" fill="#0F0F0F"/>
<path d="M147.363 192.229C158.16 214.328 204.744 213.761 166.912 232.243C129.08 250.726 158.16 214.328 147.363 192.229C136.567 170.13 89.9823 170.697 127.814 152.215C165.646 133.732 136.567 170.13 147.363 192.229Z" fill="#0F0F0F"/>
</g>
<defs>
<clipPath id="clip0">
<rect width="240" height="240" fill="white"/>
</clipPath>
</defs>
</svg>
