<svg width="240" height="240" viewBox="0 0 240 240" fill="none" xmlns="http://www.w3.org/2000/svg">
<rect width="240" height="240" fill="white"/>
<path d="M58.2352 117.348C57.9469 172.162 99.8181 216.819 57.7132 216.597C15.6084 216.376 57.9469 172.162 58.2352 117.348C58.5235 62.5339 16.6524 17.877 58.7572 18.0984C100.862 18.3199 58.5235 62.5339 58.2352 117.348Z" fill="#0F0F0F"/>
<path d="M119.106 21.3586C76.1782 20.5066 48.1646 95.8884 49 53.7913C49.8355 11.6941 76.1782 20.5066 119.106 21.3586C181.961 21.3964 199.317 12.4043 198.482 54.5014C197.646 96.5985 162.034 22.2105 119.106 21.3586Z" fill="#0F0F0F"/>
<path d="M130.056 118.665C173.011 118.734 199.657 42.854 199.589 84.9594C199.521 127.065 173.011 118.734 130.056 118.665C67.1827 119.773 49.9858 129.08 50.0535 86.975C50.1212 44.8696 87.1006 118.596 130.056 118.665Z" fill="#0F0F0F"/>
</svg>
