<svg width="240" height="240" viewBox="0 0 240 240" fill="none" xmlns="http://www.w3.org/2000/svg">
<rect width="240" height="240" fill="white"/>
<path d="M59.2352 119.348C58.9469 174.162 100.818 218.819 58.7132 218.597C16.6084 218.376 58.9469 174.162 59.2352 119.348C59.5235 64.5339 17.6524 19.877 59.7572 20.0984C101.862 20.3199 59.5235 64.5339 59.2352 119.348Z" fill="#0F0F0F"/>
<path d="M117 21.3168C75.3743 20.4907 48.1646 95.8884 49 53.7913C49.8355 11.6941 75.3743 20.4907 117 21.3168C177.95 21.3168 194.785 12.3143 193.95 54.4115C193.114 96.5086 158.626 22.1429 117 21.3168Z" fill="#0F0F0F"/>
<path d="M181.235 119.348C180.947 174.162 222.818 218.819 180.713 218.597C138.608 218.376 180.947 174.162 181.235 119.348C181.524 64.5339 139.652 19.877 181.757 20.0984C223.862 20.3199 181.524 64.5339 181.235 119.348Z" fill="#0F0F0F"/>
<path d="M124.61 215.295C166.233 216.245 193.667 140.928 192.706 183.023C191.746 225.117 166.233 216.245 124.61 215.295C63.6606 215.113 46.7985 224.066 47.7592 181.971C48.72 139.877 82.9867 214.345 124.61 215.295Z" fill="#0F0F0F"/>
</svg>
