<svg width="240" height="240" viewBox="0 0 240 240" fill="none" xmlns="http://www.w3.org/2000/svg">
<rect width="240" height="240" fill="white"/>
<path d="M59.2352 119.348C58.9469 174.162 100.818 218.819 58.7132 218.597C16.6084 218.376 58.9469 174.162 59.2352 119.348C59.5235 64.5339 17.6524 19.877 59.7572 20.0984C101.862 20.3199 59.5235 64.5339 59.2352 119.348Z" fill="#0F0F0F"/>
<path d="M117.527 122.873C151.759 173.933 214.483 191.878 179.51 215.325C144.537 238.772 151.759 173.933 117.527 122.873C83.2943 71.8132 20.5706 53.868 55.5435 30.4209C90.5164 6.97386 83.2943 71.8132 117.527 122.873Z" fill="#0F0F0F"/>
<path d="M181.235 119.348C180.947 174.162 222.818 218.819 180.713 218.597C138.608 218.376 180.947 174.162 181.235 119.348C181.524 64.5339 139.652 19.877 181.757 20.0984C223.862 20.3199 181.524 64.5339 181.235 119.348Z" fill="#0F0F0F"/>
</svg>
