<svg width="240" height="240" viewBox="0 0 240 240" fill="none" xmlns="http://www.w3.org/2000/svg">
<rect width="240" height="240" fill="white"/>
<path d="M57.5154 118.807C44.0534 171.943 73.9563 225.359 33.1404 215.018C-7.67552 204.677 44.0534 171.943 57.5154 118.807C70.9773 65.671 41.0745 12.2552 81.8904 22.5959C122.706 32.9365 70.9773 65.671 57.5154 118.807Z" fill="#0F0F0F"/>
<path d="M190.365 119.961C178.724 66.3967 128.142 31.9165 169.287 22.9743C210.431 14.0321 178.724 66.3967 190.365 119.961C202.006 173.525 252.589 208.005 211.444 216.947C170.299 225.89 202.006 173.525 190.365 119.961Z" fill="#0F0F0F"/>
<path d="M100.553 90.1001C115.236 120.915 165.149 127.783 127.138 145.895C89.127 164.006 115.236 120.915 100.553 90.1001C85.8712 59.2856 35.9576 52.4168 73.9688 34.3055C111.98 16.1942 85.8712 59.2856 100.553 90.1001Z" fill="#0F0F0F"/>
<path d="M147.759 85.0357C130.388 115.883 157.188 155.161 120.5 134.5C83.812 113.84 130.388 115.883 147.759 85.0357C165.13 54.1888 140.812 12.3395 177.5 33C214.188 53.6605 165.13 54.1888 147.759 85.0357Z" fill="#0F0F0F"/>
</svg>
