<svg width="240" height="240" viewBox="0 0 240 240" fill="none" xmlns="http://www.w3.org/2000/svg">
<rect width="240" height="240" fill="white"/>
<path d="M58.7218 119.252C58.7172 174.067 100.819 218.507 58.7135 218.503C16.6081 218.499 58.7172 174.067 58.7218 119.252C58.7264 64.4376 16.6247 19.998 58.7301 20.0016C100.836 20.0051 58.7264 64.4376 58.7218 119.252Z" fill="#0F0F0F"/>
<path d="M180.313 119.362C179.982 174.176 221.818 218.865 179.713 218.611C137.609 218.357 179.982 174.176 180.313 119.362C180.644 64.5483 138.807 19.8587 180.912 20.113C223.017 20.3674 180.644 64.5483 180.313 119.362Z" fill="#0F0F0F"/>
<path d="M119.044 118.871C85.1152 118.782 57.4997 160.815 57.6106 118.71C57.7215 76.6044 85.1152 118.782 119.044 118.871C152.972 118.961 180.588 76.9279 180.477 119.033C180.366 161.139 152.972 118.961 119.044 118.871Z" fill="#0F0F0F"/>
</svg>
