<svg width="240" height="240" viewBox="0 0 240 240" fill="none" xmlns="http://www.w3.org/2000/svg">
<rect width="240" height="240" fill="white"/>
<path d="M58.2352 119.348C57.9469 174.162 99.8181 218.819 57.7132 218.597C15.6084 218.376 57.9469 174.162 58.2352 119.348C58.5235 64.5339 16.6524 19.877 58.7572 20.0984C100.862 20.3199 58.5235 64.5339 58.2352 119.348Z" fill="#0F0F0F"/>
<path d="M114.524 42.1038C78.3977 41.8881 48.8602 83.8179 49.1116 41.7132C49.3631 -0.391469 78.3977 41.8881 114.524 42.1038C150.65 42.3196 180.188 0.389762 179.936 42.4944C179.685 84.5991 150.65 42.3196 114.524 42.1038Z" fill="#0F0F0F"/>
<path d="M120.367 200.047C76.7084 199.309 40.6048 240.81 41.3163 198.711C42.0277 156.611 76.7084 199.309 120.367 200.047C164.025 200.785 200.129 159.283 199.417 201.383C198.706 243.482 164.025 200.785 120.367 200.047Z" fill="#0F0F0F"/>
<path d="M171.948 165.684C171.818 190.308 213.818 210.491 171.713 210.269C129.608 210.048 171.818 190.308 171.948 165.684C172.077 141.06 130.077 120.877 172.182 121.098C214.287 121.32 172.077 141.06 171.948 165.684Z" fill="#0F0F0F"/>
<path d="M170.074 130.819C192.179 130.761 209.988 88.6082 210.099 130.713C210.209 172.819 192.179 130.761 170.074 130.819C147.969 130.877 130.16 173.029 130.049 130.924C129.939 88.8185 147.969 130.877 170.074 130.819Z" fill="#0F0F0F"/>
</svg>
