<svg width="240" height="240" viewBox="0 0 240 240" fill="none" xmlns="http://www.w3.org/2000/svg">
<path d="M58.2352 119.348C57.9469 174.162 99.8181 218.819 57.7132 218.597C15.6084 218.376 57.9469 174.162 58.2352 119.348C58.5235 64.5339 16.6524 19.877 58.7572 20.0984C100.862 20.3199 58.5235 64.5339 58.2352 119.348Z" fill="#0F0F0F"/>
<path d="M118.253 20.0476C76.6268 19.2215 49.417 94.6192 50.2524 52.522C51.0879 10.4249 76.6268 19.2215 118.253 20.0476C179.202 20.0476 196.038 11.0451 195.202 53.1422C194.367 95.2394 159.878 20.8737 118.253 20.0476Z" fill="#0F0F0F"/>
<path d="M199.487 116.698C198.897 62.4909 122.615 29.8444 164.718 29.3865C206.821 28.9286 198.897 62.4909 199.487 116.698C201.559 196.026 211.129 217.607 169.026 218.065C126.923 218.523 200.077 170.906 199.487 116.698Z" fill="#0F0F0F"/>
<path d="M126.61 218.363C168.232 219.35 195.733 144.058 194.735 186.151C193.737 228.245 168.232 219.35 126.61 218.363C65.6608 218.127 48.7906 227.064 49.7887 184.971C50.7869 142.877 84.9875 217.376 126.61 218.363Z" fill="#0F0F0F"/>
</svg>
