<svg width="240" height="240" viewBox="0 0 240 240" fill="none" xmlns="http://www.w3.org/2000/svg">
<path d="M68.0627 120.499C68.2557 175.313 110.517 219.601 68.4121 219.749C26.3069 219.897 68.2557 175.313 68.0627 120.499C67.8698 65.6844 25.6082 21.3968 67.7134 21.2486C109.819 21.1004 67.8698 65.6844 68.0627 120.499Z" fill="#0F0F0F"/>
<path d="M125.844 75.7954C98.7757 101.297 105.705 152.617 76.8323 121.97C47.9596 91.3231 98.7757 101.297 125.844 75.7954C152.913 50.2939 145.984 -1.02607 174.856 29.6209C203.729 60.2678 152.913 50.2939 125.844 75.7954Z" fill="#0F0F0F"/>
<path d="M127.754 159.972C99.9511 131.397 47.2345 137.596 77.412 108.233C107.59 78.87 99.9511 131.397 127.754 159.972C155.558 188.547 208.274 182.348 178.097 211.711C147.919 241.074 155.558 188.547 127.754 159.972Z" fill="#0F0F0F"/>
</svg>
