<svg width="240" height="240" viewBox="0 0 240 240" fill="none" xmlns="http://www.w3.org/2000/svg">
<path d="M119.42 40.3774C75.0342 40.56 39.2258 82.8131 39.0525 40.708C38.8793 -1.39704 75.0342 40.56 119.42 40.3774C163.805 40.1948 199.614 -2.05833 199.787 40.0467C199.96 82.1518 163.805 40.1948 119.42 40.3774Z" fill="#0F0F0F"/>
<path d="M110.344 125.664C67.7334 173.861 64.7353 240.821 33.1904 212.932C1.64545 185.044 67.7334 173.861 110.344 125.664C152.955 77.4665 155.954 10.5062 187.498 38.395C219.043 66.2838 152.955 77.4665 110.344 125.664Z" fill="#0F0F0F"/>
<path d="M129.052 199.723C78.8801 200.281 38.6764 242.836 38.2081 200.733C37.7397 158.631 78.8801 200.281 129.052 199.723C179.223 199.165 219.427 156.61 219.895 198.712C220.363 240.815 179.223 199.165 129.052 199.723Z" fill="#0F0F0F"/>
</svg>
