<svg width="240" height="240" viewBox="0 0 240 240" fill="none" xmlns="http://www.w3.org/2000/svg">
<path d="M59.2352 119.348C58.9469 174.162 100.818 218.819 58.7132 218.597C16.6084 218.376 58.9469 174.162 59.2352 119.348C59.5235 64.5339 17.6524 19.877 59.7572 20.0984C101.862 20.3199 59.5235 64.5339 59.2352 119.348Z" fill="#0F0F0F"/>
<path d="M115.524 42.1038C79.3977 41.8881 49.8602 83.8179 50.1116 41.7132C50.3631 -0.391469 79.3977 41.8881 115.524 42.1038C151.65 42.3196 181.188 0.389762 180.936 42.4944C180.685 84.5991 151.65 42.3196 115.524 42.1038Z" fill="#0F0F0F"/>
<path d="M121.367 200.047C77.7084 199.309 41.6048 240.81 42.3163 198.711C43.0277 156.611 77.7084 199.309 121.367 200.047C165.025 200.785 201.129 159.283 200.417 201.383C199.706 243.482 165.025 200.785 121.367 200.047Z" fill="#0F0F0F"/>
</svg>
