<svg width="240" height="240" viewBox="0 0 240 240" fill="none" xmlns="http://www.w3.org/2000/svg">
<path d="M58.2352 119.348C57.9469 174.162 99.8181 218.819 57.7132 218.597C15.6084 218.376 57.9469 174.162 58.2352 119.348C58.5235 64.5339 16.6524 19.877 58.7572 20.0984C100.862 20.3199 58.5235 64.5339 58.2352 119.348Z" fill="#0F0F0F"/>
<path d="M180.235 119.348C179.947 174.162 221.818 218.819 179.713 218.597C137.608 218.376 179.947 174.162 180.235 119.348C180.524 64.5339 138.652 19.877 180.757 20.0984C222.862 20.3199 180.524 64.5339 180.235 119.348Z" fill="#0F0F0F"/>
<path d="M122.61 218.363C164.232 219.349 191.733 144.057 190.735 186.151C189.737 228.245 164.232 219.349 122.61 218.363C61.6608 218.127 44.7906 227.064 45.7887 184.971C46.7869 142.877 80.9875 217.376 122.61 218.363Z" fill="#0F0F0F"/>
</svg>
