<svg width="240" height="240" viewBox="0 0 240 240" fill="none" xmlns="http://www.w3.org/2000/svg">
<path d="M183.476 119.637C196.274 66.3378 165.706 13.2993 206.648 23.1298C247.59 32.9603 196.274 66.3378 183.476 119.637C170.678 172.937 201.245 225.976 160.303 216.145C119.362 206.315 170.678 172.937 183.476 119.637Z" fill="#0F0F0F"/>
<path d="M50.6223 120.142C62.9312 173.556 113.94 207.403 72.9095 216.858C31.8794 226.313 62.9312 173.556 50.6223 120.142C38.3133 66.7268 -12.6951 32.8806 28.335 23.4256C69.3651 13.9706 38.3133 66.7268 50.6223 120.142Z" fill="#0F0F0F"/>
<path d="M140.799 148.879C125.734 118.25 75.7383 112.005 113.52 93.4207C151.303 74.8364 125.734 118.25 140.799 148.879C155.865 179.508 205.86 185.753 168.078 204.338C130.296 222.922 155.865 179.508 140.799 148.879Z" fill="#0F0F0F"/>
<path d="M93.6608 154.532C110.646 123.471 83.3574 84.5306 120.3 104.732C157.243 124.933 110.646 123.471 93.6608 154.532C76.676 185.594 101.515 227.136 64.5716 206.935C27.6286 186.734 76.676 185.594 93.6608 154.532Z" fill="#0F0F0F"/>
</svg>
