<svg width="240" height="240" viewBox="0 0 240 240" fill="none" xmlns="http://www.w3.org/2000/svg">
<path d="M119.076 149.623C118.876 187.717 160.818 218.819 118.713 218.597C76.6085 218.376 118.876 187.717 119.076 149.623C119.276 111.53 77.334 80.4282 119.439 80.6497C161.544 80.8711 119.276 111.53 119.076 149.623Z" fill="#0F0F0F"/>
<path d="M86.2541 67.4386C108.812 87.7759 153.59 74.8786 127.098 104.263C100.606 133.647 108.812 87.7759 86.2541 67.4386C63.6966 47.1013 18.9183 59.9986 45.4101 30.6147C71.902 1.23072 63.6966 47.1013 86.2541 67.4386Z" fill="#0F0F0F"/>
<path d="M151.963 66.8258C129.759 86.797 138.216 132.402 111.759 102.987C85.3016 73.5716 129.759 86.797 151.963 66.8258C174.167 46.8545 165.71 1.24937 192.167 30.6646C218.624 60.0799 174.167 46.8545 151.963 66.8258Z" fill="#0F0F0F"/>
</svg>
