<svg width="240" height="240" viewBox="0 0 240 240" fill="none" xmlns="http://www.w3.org/2000/svg">
<g clip-path="url(#clip0)">
<path d="M113.016 22.4701C78.2288 21.789 55.5277 82.0615 56.2047 48.4022C56.8817 14.7428 78.2288 21.789 113.016 22.4701C163.951 22.5004 178.016 15.3106 177.339 48.97C176.662 82.6293 147.803 23.1513 113.016 22.4701Z" fill="#0F0F0F"/>
<path d="M121.889 100.273C156.698 100.328 178.291 39.6571 178.236 73.3231C178.181 106.989 156.698 100.328 121.889 100.273C70.9391 101.159 57.0034 108.601 57.0583 74.9346C57.1131 41.2687 87.0797 100.218 121.889 100.273Z" fill="#0F0F0F"/>
<path d="M125.358 120.089C82.4307 119.237 54.417 194.619 55.2525 152.522C56.0879 110.425 82.4307 119.237 125.358 120.089C188.213 120.127 205.57 111.135 204.734 153.232C203.899 195.329 168.286 120.941 125.358 120.089Z" fill="#0F0F0F"/>
<path d="M136.308 217.396C179.263 217.465 205.909 141.585 205.841 183.69C205.774 225.796 179.263 217.465 136.308 217.396C73.4352 218.504 56.2382 227.811 56.3059 185.706C56.3737 143.6 93.353 217.327 136.308 217.396Z" fill="#0F0F0F"/>
</g>
<defs>
<clipPath id="clip0">
<rect width="240" height="240" fill="white"/>
</clipPath>
</defs>
</svg>
