<svg width="240" height="240" viewBox="0 0 240 240" fill="none" xmlns="http://www.w3.org/2000/svg">
<path d="M74.8143 118.967C54.1108 169.722 76.314 226.769 37.3273 210.866C-1.65926 194.963 54.1108 169.722 74.8143 118.967C95.5178 68.2127 73.3147 11.1649 112.301 27.0681C151.288 42.9713 95.5178 68.2127 74.8143 118.967Z" fill="#0F0F0F"/>
<path d="M115.557 123.605C93.2888 124.011 75.7687 153.507 75.2365 124.34C74.7044 95.1738 93.2888 124.011 115.557 123.605C137.826 123.199 155.346 93.7025 155.878 122.869C156.411 152.036 137.826 123.199 115.557 123.605Z" fill="#0F0F0F"/>
<path d="M155.668 119.002C135.052 68.2117 79.3256 42.8745 118.339 27.0383C157.353 11.2021 135.052 68.2117 155.668 119.002C176.285 169.792 232.011 195.129 192.997 210.965C153.984 226.801 176.285 169.792 155.668 119.002Z" fill="#0F0F0F"/>
</svg>
