<svg width="240" height="240" viewBox="0 0 240 240" fill="none" xmlns="http://www.w3.org/2000/svg">
<rect width="240" height="240" fill="white"/>
<path d="M119.612 39.7531C75.779 39.1781 39.6931 80.8137 40.2455 38.7119C40.7978 -3.38987 75.779 39.1781 119.612 39.7531C163.445 40.3282 199.53 -1.3075 198.978 40.7943C198.426 82.8961 163.445 40.3282 119.612 39.7531Z" fill="#0F0F0F"/>
<path d="M112.457 119.395C157.39 170.195 225.355 183.48 193.816 211.376C162.278 239.273 157.39 170.195 112.457 119.395C67.523 68.5959 -0.441128 55.3111 31.097 27.4147C62.6352 -0.481736 67.523 68.5959 112.457 119.395Z" fill="#0F0F0F"/>
<path d="M99.0516 197.723C48.8801 198.281 8.67639 240.836 8.20805 198.733C7.73972 156.631 48.8801 198.281 99.0516 197.723C149.223 197.165 189.427 154.61 189.895 196.712C190.363 238.815 149.223 197.165 99.0516 197.723Z" fill="#0F0F0F"/>
</svg>
