<svg width="240" height="240" viewBox="0 0 240 240" fill="none" xmlns="http://www.w3.org/2000/svg">
<path d="M60.0685 119.317C59.8724 174.131 101.819 218.718 59.7134 218.567C17.6082 218.416 59.8724 174.131 60.0685 119.317C60.2646 64.5027 18.3185 19.9163 60.4236 20.067C102.529 20.2176 60.2646 64.5027 60.0685 119.317Z" fill="#0F0F0F"/>
<path d="M125.494 40.291C89.4059 40.5825 60.4912 82.9229 60.1511 40.8188C59.811 -1.28521 89.4059 40.5825 125.494 40.291C161.581 39.9995 190.496 -2.34085 190.836 39.7632C191.176 81.8673 161.581 39.9995 125.494 40.291Z" fill="#0F0F0F"/>
<path d="M110.363 118.125C82.6363 118.362 60.5192 160.658 60.1597 118.554C59.8002 76.4503 82.6363 118.362 110.363 118.125C138.089 117.889 160.206 75.5929 160.565 117.697C160.925 159.801 138.089 117.889 110.363 118.125Z" fill="#0F0F0F"/>
</svg>
